<mxfile host="app.diagrams.net" modified="2023-09-26T19:28:59.032Z" agent="Mozilla/5.0 (Windows NT 10.0; Win64; x64) AppleWebKit/537.36 (KHTML, like Gecko) Chrome/116.0.0.0 Safari/537.36" version="21.8.2" etag="JGuY59pNRwt40ngetzeA" type="github">
  <diagram name="PÃ¡gina-1" id="geKRz6aC9wAKqqo5W0Ov">
    <mxGraphModel>
      <root>
        <mxCell id="0" />
        <mxCell id="1" parent="0" />
      </root>
    </mxGraphModel>
  </diagram>
</mxfile>
